<svg id="Layer_1" data-name="Layer 1" xmlns="http://www.w3.org/2000/svg" viewBox="0 0 10.06 14"><defs><style>.cls-1{fill:#231f20;}.cls-2{fill:none;stroke:#231f20;stroke-miterlimit:10;}</style></defs><title>pause-button</title><path class="cls-1" d="M3,14.12V1.88A.89.89,0,0,1,3.85,1H5.14A.88.88,0,0,1,6,1.89L6,14.12a.88.88,0,0,1-.88.88H3.85A.89.89,0,0,1,3,14.12Z" transform="translate(-2.97 -1)"/><path class="cls-2" d="M8.89,15.9" transform="translate(-2.97 -1)"/><path class="cls-2" d="M10.28,14.82" transform="translate(-2.97 -1)"/><path class="cls-1" d="M10,14.1V1.9a.9.9,0,0,1,.9-.9h1.2a.91.91,0,0,1,.91.91L13,14.1a.91.91,0,0,1-.9.9H10.93A.9.9,0,0,1,10,14.1Z" transform="translate(-2.97 -1)"/></svg>