<svg id="Layer_1" data-name="Layer 1" xmlns="http://www.w3.org/2000/svg" viewBox="0 0 13.62 15.43"><defs><style>.cls-1,.cls-2{fill:#231f20;}.cls-1{stroke:#231f20;stroke-miterlimit:10;}</style></defs><title>skip-prev-button</title><path class="cls-1" d="M15,14.86V1.07c0-.24-.41-.36-.65-.19L4.77,7.63a.29.29,0,0,0,0,.46l9.56,7C14.57,15.22,15,15.1,15,14.86Z" transform="translate(-1.87 -0.25)"/><path class="cls-2" d="M4.92,14.7V1.22A.93.93,0,0,0,4,.25H2.75a.93.93,0,0,0-.88,1l.07,13.48a.93.93,0,0,0,.88,1H4A.93.93,0,0,0,4.92,14.7Z" transform="translate(-1.87 -0.25)"/></svg>