<svg id="Layer_1" data-name="Layer 1" xmlns="http://www.w3.org/2000/svg" viewBox="0 0 13.62 15.43"><defs><style>.cls-1,.cls-2{fill:#231f20;}.cls-1{stroke:#231f20;stroke-miterlimit:10;}</style></defs><title>skip-button</title><path class="cls-1" d="M1.69,14.86V1.07c0-.24.41-.36.65-.19l9.57,6.75a.29.29,0,0,1,0,.46l-9.57,7C2.11,15.22,1.69,15.1,1.69,14.86Z" transform="translate(-1.19 -0.25)"/><path class="cls-2" d="M11.75,14.7V1.22a.94.94,0,0,1,.89-1h1.28a.94.94,0,0,1,.89,1l-.07,13.48a.94.94,0,0,1-.89,1H12.64A.94.94,0,0,1,11.75,14.7Z" transform="translate(-1.19 -0.25)"/></svg>